{"accessors":[{"bufferView":2,"componentType":5126,"count":4934,"max":[377.81231689453125,543.5274658203125,1019.6973266601562],"min":[-502.08856201171875,-320.6971130371094,12.388925552368164],"type":"VEC3"},{"bufferView":2,"byteOffset":59208,"componentType":5126,"count":4934,"max":[0.9998281598091125,0.9998705387115479,0.9999417662620544],"min":[-0.9999924302101135,-0.9998029470443726,-0.999985933303833],"type":"VEC3"},{"bufferView":1,"componentType":5126,"count":4934,"max":[0.8345246911048889,0.720068633556366],"min":[0.2223285287618637,0.21977734565734863],"type":"VEC2"},{"bufferView":0,"componentType":5125,"count":29592,"type":"SCALAR"},{"bufferView":3,"componentType":5126,"count":101,"max":[3.3333332538604736],"min":[0],"type":"SCALAR"},{"bufferView":4,"componentType":5126,"count":101,"max":[0.4829822778701782,0.7067252397537231,0.7067252397537231,0.7071043252944946],"min":[-0.7071043252944946,-0.48874199390411377,-0.48874199390411377,-0.4829822778701782],"type":"VEC4"}],"animations":[{"channels":[{"sampler":0,"target":{"node":4,"path":"rotation"}}],"name":"Take 001","samplers":[{"input":4,"interpolation":"LINEAR","output":5}]}],"asset":{"extras":{"author":"Anthony Yanez (https://sketchfab.com/paulyanez)","license":"CC-BY-4.0 (http://creativecommons.org/licenses/by/4.0/)","source":"https://sketchfab.com/3d-models/animated-tornado-dbc7e7176ce9435d9f04f2c88257fff6","title":"Animated Tornado"},"generator":"Sketchfab-12.66.0","version":"2.0"},"bufferViews":[{"buffer":0,"byteLength":118368,"name":"floatBufferViews","target":34963},{"buffer":0,"byteLength":39472,"byteOffset":118368,"byteStride":8,"name":"floatBufferViews","target":34962},{"buffer":0,"byteLength":118416,"byteOffset":157840,"byteStride":12,"name":"floatBufferViews","target":34962},{"buffer":0,"byteLength":404,"byteOffset":276256,"name":"floatBufferViews"},{"buffer":0,"byteLength":1616,"byteOffset":276660,"byteStride":16,"name":"floatBufferViews"}],"buffers":[{"byteLength":278276,"uri":"data:application/octet-stream;base64,"}],"images":[{"uri":"data:application/octet-stream;base64,"}],"materials":[{"doubleSided":true,"name":"01_-_Default","pbrMetallicRoughness":{"baseColorTexture":{"index":0},"roughnessFactor":0.8929713596}}],"meshes":[{"name":"Tornado_01 - Default_0","primitives":[{"attributes":{"NORMAL":1,"POSITION":0,"TEXCOORD_0":2},"indices":3,"material":0,"mode":4}]}],"nodes":[{"children":[1],"matrix":[1,0,0,0,0,2.220446049250313e-16,-1,0,0,1,2.220446049250313e-16,0,0,0,0,1],"name":"Sketchfab_model"},{"children":[2],"matrix":[1,0,0,0,0,0,1,0,0,-1,0,0,0,0,0,1],"name":"Tornado.FBX"},{"children":[3],"name":"Object_2"},{"children":[4],"name":"RootNode"},{"children":[5],"name":"Tornado","rotation":[-0.7071043252944946,0.0018723292741924524,0.0018723292741924524,0.7071043252944946],"translation":[0.3561496138572693,0,0.35613933205604553]},{"mesh":0,"name":"Tornado_01 - Default_0"}],"samplers":[{"magFilter":9729,"minFilter":9987,"wrapS":10497,"wrapT":10497}],"scene":0,"scenes":[{"name":"Sketchfab_Scene","nodes":[0]}],"textures":[{"sampler":0,"source":0}]}